<svg width="46" height="46" viewBox="0 0 46 46" fill="none" xmlns="http://www.w3.org/2000/svg">
<g id="quality 1" clip-path="url(#clip0_17_1592)">
<g id="XMLID_1364_">
<g id="XMLID_141_">
<path id="XMLID_162_" d="M40.8191 39.5434L35.1265 29.6833C36.0706 28.8882 36.7231 27.7575 36.8975 26.4761C37.0159 25.6048 37.464 24.8285 38.1593 24.2903C39.9618 22.895 40.6177 20.4472 39.7544 18.3375C39.4214 17.5237 39.4214 16.6273 39.7544 15.8136C40.6177 13.7039 39.9618 11.2561 38.1593 9.86081C37.464 9.32257 37.0158 8.54629 36.8975 7.67499C36.5902 5.41638 34.7982 3.62437 32.5396 3.31732C31.6684 3.19883 30.8921 2.75069 30.354 2.05537C28.9586 0.25281 26.511 -0.403042 24.4011 0.460264C23.5873 0.793332 22.6909 0.793332 21.8772 0.460264C19.7677 -0.40313 17.3197 0.25281 15.9244 2.05537C15.3862 2.75069 14.6099 3.19883 13.7386 3.31732C11.4799 3.62446 9.68801 5.41638 9.38096 7.67507C9.26247 8.54638 8.81433 9.32266 8.11901 9.8609C6.31645 11.2562 5.6606 13.7041 6.5239 15.8137C6.85697 16.6274 6.85697 17.5238 6.5239 18.3376C5.66051 20.4472 6.31645 22.895 8.11901 24.2903C8.81433 24.8286 9.26247 25.6049 9.38096 26.4761C9.55747 27.7743 10.2252 28.9177 11.1894 29.7142L5.5145 39.5434C5.33676 39.8513 5.3619 40.236 5.57841 40.5179C5.79483 40.7999 6.15972 40.924 6.50333 40.8319L11.4498 39.5065L12.7695 44.4317C12.8615 44.7751 13.1513 45.0293 13.5038 45.0757C13.5423 45.0808 13.5807 45.0832 13.6188 45.0832C13.9298 45.0832 14.2215 44.918 14.3798 44.6437L20.5034 34.0375C20.9677 33.9875 21.43 33.8738 21.8771 33.6908C22.6909 33.3577 23.5874 33.3577 24.401 33.6908C24.8672 33.8816 25.35 33.9979 25.8342 34.0443L31.9537 44.6437C32.1121 44.9181 32.4037 45.0832 32.7147 45.0832C32.7529 45.0832 32.7912 45.0808 32.8298 45.0757C33.1823 45.0293 33.4721 44.7751 33.5641 44.4317L34.8839 39.5065L39.8304 40.8319C40.1736 40.924 40.5388 40.8001 40.7552 40.5179C40.9716 40.236 40.9969 39.8513 40.8191 39.5434ZM13.9183 41.9269L12.9203 38.2025C12.8599 37.9773 12.7127 37.7853 12.5108 37.6687C12.3089 37.5522 12.0691 37.5206 11.8438 37.5809L8.09809 38.5845L12.7168 30.5846C13.0434 30.7014 13.3853 30.7857 13.7385 30.8338C14.6098 30.9523 15.3861 31.4005 15.9244 32.0958C16.6075 32.9782 17.543 33.5852 18.5675 33.8743L13.9183 41.9269ZM21.2112 32.0638C19.8303 32.629 18.228 32.1996 17.3146 31.0197C16.4923 29.9575 15.3064 29.2727 13.9754 29.0918C12.4969 28.8908 11.3238 27.7178 11.1229 26.2393C10.9419 24.9082 10.2572 23.7224 9.19495 22.9C8.01502 21.9867 7.5857 20.3843 8.15083 19.0034C8.65971 17.7602 8.65971 16.3909 8.15083 15.1477C7.5857 13.7668 8.01502 12.1644 9.19495 11.2511C10.2572 10.4288 10.9419 9.24302 11.1229 7.91189C11.3239 6.43343 12.4969 5.26035 13.9754 5.05931C15.3064 4.87841 16.4923 4.19372 17.3146 3.13149C17.9587 2.2993 18.9453 1.84053 19.9555 1.84053C20.3777 1.84053 20.8041 1.92079 21.2111 2.08737C22.4544 2.59616 23.8238 2.59616 25.0669 2.08737C26.4477 1.52214 28.0502 1.95156 28.9635 3.13149C29.7858 4.19372 30.9716 4.87841 32.3025 5.05931C33.781 5.26035 34.9541 6.43334 35.1551 7.91189C35.3361 9.24302 36.0208 10.4288 37.083 11.2511C38.263 12.1644 38.6923 13.7667 38.1272 15.1477C37.6184 16.3909 37.6184 17.7602 38.1272 19.0034C38.6923 20.3843 38.2629 21.9867 37.083 22.9C36.0208 23.7223 35.3361 24.9081 35.1551 26.2392C34.9541 27.7177 33.781 28.8908 32.3026 29.0917C30.9715 29.2727 29.7857 29.9573 28.9634 31.0197C28.05 32.1997 26.4477 32.6289 25.0669 32.0637C23.8237 31.555 22.4545 31.555 21.2112 32.0638ZM34.4898 37.5809C34.0206 37.4551 33.5389 37.7336 33.4132 38.2025L32.4151 41.9269L27.758 33.8604C28.7639 33.5661 29.6812 32.9646 30.3539 32.0958C30.892 31.4004 31.6683 30.9522 32.5395 30.8338C32.9093 30.7835 33.2664 30.6927 33.6067 30.5673L38.2354 38.5845L34.4898 37.5809Z" fill="#2C2C2C"/>
<path id="XMLID_1190_" d="M19.1443 13.824L16.4093 16.5588C16.2445 16.7237 16.1519 16.9473 16.1519 17.1804C16.1519 17.4135 16.2445 17.6372 16.4093 17.802L21.5388 22.9315C21.7036 23.0964 21.9272 23.189 22.1604 23.189C22.3935 23.189 22.6171 23.0964 22.7819 22.9315L29.9241 15.7893C30.2674 15.4461 30.2674 14.8895 29.9241 14.5462L27.1893 11.8112C27.0243 11.6464 26.8008 11.5538 26.5677 11.5538C26.3346 11.5538 26.1109 11.6464 25.9461 11.8112L22.1604 15.597L20.3876 13.8241C20.2228 13.6592 19.9991 13.5666 19.766 13.5666C19.5327 13.5665 19.3091 13.6592 19.1443 13.824ZM21.5387 17.4617C21.7035 17.6265 21.9271 17.7192 22.1603 17.7192C22.3934 17.7192 22.617 17.6265 22.7818 17.4617L26.5675 13.676L28.0593 15.1678L22.1603 21.0668L18.274 17.1805L19.7659 15.6888L21.5387 17.4617Z" fill="#2C2C2C"/>
<path id="XMLID_1191_" d="M34.5942 17.3714C34.5942 15.0364 33.8944 12.7906 32.5706 10.8769C31.2778 9.00834 29.482 7.57947 27.3774 6.7449C26.9259 6.56602 26.4152 6.78675 26.2362 7.23805C26.0572 7.68935 26.2781 8.20024 26.7293 8.37922C30.4391 9.85029 32.8362 13.38 32.8362 17.3714C32.8362 22.7032 28.4985 27.0409 23.1668 27.0409C17.8351 27.0409 13.4973 22.7032 13.4973 17.3714C13.4973 13.3799 15.8945 9.8502 19.6043 8.37913C20.0556 8.20016 20.2764 7.68926 20.0974 7.23796C19.9185 6.78666 19.4075 6.56584 18.9563 6.74482C16.8516 7.57947 15.0558 9.00826 13.763 10.8768C12.4391 12.7905 11.7393 15.0363 11.7393 17.3714C11.7393 23.6725 16.8656 28.7989 23.1668 28.7989C29.4679 28.799 34.5942 23.6726 34.5942 17.3714Z" fill="#2C2C2C"/>
<path id="XMLID_1218_" d="M23.1666 7.70162C23.3978 7.70162 23.6246 7.60845 23.788 7.44406C23.9515 7.28056 24.0457 7.05465 24.0457 6.82258C24.0457 6.5914 23.9516 6.3646 23.788 6.2011C23.6246 6.0376 23.3978 5.94354 23.1666 5.94354C22.9355 5.94354 22.7087 6.0376 22.5452 6.2011C22.3817 6.3646 22.2876 6.5914 22.2876 6.82258C22.2876 7.05465 22.3817 7.28056 22.5452 7.44406C22.7087 7.60845 22.9355 7.70162 23.1666 7.70162Z" fill="#2C2C2C"/>
</g>
</g>
</g>
<defs>
<clipPath id="clip0_17_1592">
<rect width="45" height="45" fill="white" transform="translate(0.666748 0.083374)"/>
</clipPath>
</defs>
</svg>
